Risa.Yoshiki.in.Ishigaki.Island-HDMP4.mp4
   
General
      Format : MPEG-4
      Format profile : Base Media
      Codec ID : isom
      File size : 1.15 GiB
      Duration : 39mn 0s
      Overall bit rate mode : Variable
      Overall bit rate : 4 207 Kbps
      Movie name : Beach Angels Risa Yoshiki in Ishigaki Island
      Encoded date : UTC 2011-08-21 18:09:52
      Tagged date : UTC 2011-08-22 21:10:06
      Writing application : This file was made by AviUtl 0.99i8.
   Video #1
      ID : 1
      Format : AVC
      Format/Info : Advanced Video Codec
      Format profile : High@L3.2
      Format settings, CABAC : Yes
      Format settings, ReFrames : 4 frames
      Codec ID : avc1
      Codec ID/Info : Advanced Video Coding
      Duration : 38mn 59s
      Bit rate : 4 000 Kbps
      Maximum bit rate : 25.4 Mbps
      Width : 1 280 pixels
      Height : 720 pixels
      Display aspect ratio : 16:9
      Frame rate mode : Constant
      Frame rate : 59.940 fps
      Color space : YUV
      Chroma subsampling : 4:2:0
      Bit depth : 8 bits
      Scan type : Progressive
      Bits/(Pixel*Frame) : 0.072
      Stream size : 1.09 GiB (95%)
      Writing library : x264 core 115 r1937 aa21558
      Encoding settings : cabac=1 / ref=3 / deblock=1:-1:-1 / analyse=0x3:0x113 / me=hex / subme=7 / psy=1 / psy_rd=1.00:0.15 / mixed_ref=1 / me_range=16 / chroma_me=1 / trellis=1 / 8x8dct=1 / cqm=0 / deadzone=21,11 / fast_pskip=1 / chroma_qp_offset=-3 / threads=3 / sliced_threads=0 / nr=0 / decimate=1 / interlaced=0 / bluray_compat=0 / constrained_intra=0 / bframes=3 / b_pyramid=2 / b_adapt=1 / b_bias=0 / direct=1 / weightb=1 / open_gop=0 / weightp=2 / keyint=250 / keyint_min=25 / scenecut=40 / intra_refresh=0 / rc_lookahead=40 / rc=2pass / mbtree=1 / bitrate=4000 / ratetol=1.0 / qcomp=0.60 / qpmin=0 / qpmax=69 / qpstep=4 / cplxblur=20.0 / qblur=0.5 / ip_ratio=1.40 / aq=1:1.00
      Encoded date : UTC 2011-08-22 13:29:15
      Tagged date : UTC 2011-08-21 18:11:04
   Audio #2
      ID : 2
      Format : AAC
      Format/Info : Advanced Audio Codec
      Format profile : LC
      Codec ID : 40
      Duration : 39mn 0s
      Bit rate mode : Variable
      Bit rate : 192 Kbps
      Maximum bit rate : 223 Kbps
      Channel(s) : 2 channels
      Channel positions : Front: L R
      Sampling rate : 48.0 KHz
      Compression mode : Lossy
      Delay relative to video : 33ms
      Stream size : 53.6 MiB (5%)
      Encoded date : UTC 2011-08-21 18:11:02
      Tagged date : UTC 2011-08-21 18:11:04